<svg xmlns="http://www.w3.org/2000/svg" viewBox="0 0 99.3 99.2">
	<path d="m17.1 78.7h-.2c-.2 0-.3-0-.4-.1s-.2-.1-.2-.2-.1-.3-.1-.6v-4.2c0-.3 0-.5.1-.6.1-.1.1-.2.2-.2.1-.1.3-.1.4-.1h.2v-.2h-3.3v.2h.2c.2 0 .3 0 .4.1s.2.1.2.2c0 .1.1.3.1.6v4.2c0 .3-0 .5-.1.6-.1.1-.1.2-.2.2-.1.1-.3.1-.4.1h-.2v.2h3.3v-.2zm8.4-2.7h.4l2.1 2.9h2v-.2c-.2 0-.3-.1-.5-.2-.1-.1-.2-.2-.4-.5l-1.5-2.2c.4-.1.7-.2.9-.4.3-.3.5-.7.5-1.2 0-.4-.1-.7-.3-1s-.5-.5-.9-.6-.9-.2-1.7-.2h-3v.2c.3 0 .5 0 .6.1s.2.1.2.2.1.3.1.7v4.2c0 .4-0 .6-.1.7s-.1.2-.2.2-.3.1-.6.1v.2h3.2v-.2c-.3 0-.5-0-.6-.1s-.2-.1-.2-.2-.1-.3-.1-.7v-1.8zm0-3.1h.5c.5 0 .9.1 1.1.4.2.2.3.6.3 1.1 0 .3-.1.6-.2.8-.1.2-.3.3-.5.4s-.5.1-1 .1h-.3v-2.8zm-6.2 1.2.2-.9h-.1c-.1.1-.1.2-.1.2s-.1.1-.1.1-.2 0-.3 0h-.7c.5-.5.9-.9 1-1.2.1-.2.2-.4.2-.6 0-.1-0-.2-.1-.4-.1-.1-.2-.2-.3-.3s-.3-.1-.4-.1c-.2 0-.4.1-.6.2-.2.2-.3.4-.4.7l.1 0c.1-.2.3-.4.6-.4.1 0 .3 0 .4.2s.2.3.2.4c0 .2-0 .4-.2.7s-.5.7-1.1 1.4v.1h1.9zm2 .9c-.2 0-.3.1-.4.2s-.2.3-.2.4c0 .2.1.3.2.4s.3.2.4.2c.2 0 .3-.1.4-.2.1-.1.2-.3.2-.4s-.1-.3-.2-.4-.3-.2-.4-.2zm-16.5-20.3v.2c.3-0 .6 0 .7.1.1.1.2.2.3.3s.1.4.1.9v3.8c0 .7.1 1.2.3 1.6s.6.7 1.1 1c.4.2.9.3 1.6.3.8 0 1.4-.2 1.9-.5.5-.3.8-.7.9-1.1s.2-1.1.2-2v-3c0-.3 0-.5.1-.7.1-.2.2-.3.3-.4s.3-.1.6-.1h.2v-.2h-2.7v.2c.3 0 .6.1.7.1.1.1.2.2.3.3s.1.4.1.8v3.2c0 .8-.1 1.4-.2 1.8s-.4.6-.7.8-.7.3-1.1.3c-.4 0-.7-.1-.9-.2s-.4-.3-.5-.6-.2-.7-.2-1.4v-3.9c0-.5 0-.8.1-.9s.1-.2.3-.3c.1-.1.3-.1.6-.1h.2v-.2H4.9zm10.3 3c-.2 0-.4.1-.5.2-.2.1-.2.3-.2.5s.1.4.2.5.3.2.5.2.4-.1.5-.2c.2-.1.2-.3.2-.5 0-.2-.1-.4-.2-.5s-.3-.2-.5-.2zm6.3 4.7h-.3c-.2 0-.4-0-.5-.1-.1-.1-.2-.2-.3-.3s-.1-.3-.1-.8v-5.2c0-.4 0-.7.1-.7.1-.1.1-.2.2-.3.2-.1.3-.1.6-.1h.3v-.2h-4.1v.2h.3c.2 0 .4 0 .5.1s.2.2.3.3.1.4.1.8v5.2c0 .4-0 .6-.1.7-.1.1-.1.2-.2.3-.2.1-.3.1-.6.1h-.3v.2h4.1v-.2zm-.6-34.9h-.2c-.2 0-.3-0-.4-.1-.1-.1-.2-.2-.2-.3s-.1-.4-.1-.7V21.2c0-.4 0-.6.1-.7.1-.1.1-.2.2-.3.1-.1.3-.1.4-.1h.2v-.2h-3.3v.2h.2c.2 0 .3 0 .4.1s.2.2.2.3.1.3.1.7v5c0 .4-0 .6-.1.7-0 .1-.1.2-.2.3-.1.1-.3.1-.4.1h-.2v.2h3.3v-.2zm6-3.3h.4l2 3.5h2v-.2c-.2 0-.3-.1-.4-.2-.1-.1-.2-.3-.4-.6l-1.5-2.6c.4-.1.7-.3.9-.5.3-.4.5-.8.5-1.4 0-.4-.1-.9-.3-1.2-.2-.3-.5-.6-.9-.7s-.9-.2-1.7-.2h-2.9v.2c.3 0 .5 0 .6.1s.2.2.2.3.1.4.1.8v5c0 .4-0 .7-.1.8s-.1.2-.2.3-.3.1-.6.1v.2h3.2v-.2c-.3 0-.5-0-.6-.1-.1-.1-.2-.1-.2-.3-0-.1-.1-.4-.1-.8v-2.2zm0-3.7h.5c.5 0 .9.1 1.1.4.2.3.3.7.3 1.3 0 .4-.1.7-.2 1-.1.3-.3.4-.5.5-.2.1-.5.1-1 .1h-.3v-3.3zm-4.1 2.5c-.2 0-.3.1-.4.2s-.2.3-.2.5c0 .2.1.4.2.5.1.2.3.2.4.2s.3-.1.4-.2c.1-.2.2-.3.2-.5 0-.2-.1-.4-.2-.5-.1-.2-.3-.2-.4-.2zm13.7 12.2v.2c.4 0 .7 0 .8.1.2.1.3.2.3.3s.1.5.1 1v4.7c0 .8.1 1.4.4 1.9s.7.9 1.3 1.2c.5.2 1.1.3 1.9.3 1 0 1.8-.2 2.3-.6.6-.4.9-.9 1.1-1.4.1-.5.2-1.3.2-2.4v-3.6c0-.4 0-.7.1-.8.1-.2.2-.4.4-.5.2-.1.4-.2.7-.2h.2v-.2h-3.3v.2c.4 0 .7 0 .9.2.1.1.3.2.3.4.1.2.1.5.1.9v3.9c0 1-.1 1.7-.3 2.1s-.5.7-.8 1-.8.4-1.3.4c-.5 0-.8-.1-1.1-.3-.3-.2-.5-.4-.6-.7-.1-.3-.2-.8-.2-1.7v-4.7c0-.6 0-.9.1-1 0-.1.2-.2.3-.3s.4-.1.8-.1h.2v-.2h-4.9zm24.4 9.6h-.3c-.3 0-.5-0-.7-.1s-.3-.2-.3-.3c-.1-.1-.1-.4-.1-.9v-6.4c0-.5 0-.8.1-.9.1-.2.2-.3.3-.4.2-.1.4-.2.7-.2h.3v-.3h-5.1v.2h.3c.3 0 .5 0 .7.1s.3.2.3.3c.1.1.1.4.1.9v6.4c0 .5-0 .8-.1.9-.1.2-.2.3-.3.4-.2.1-.4.2-.7.2h-.3v.3h5.1v-.3zM40.1 58.7c1.1 0 1.9-.1 2.4-.2.7-.2 1.2-.5 1.6-.9.4-.4.6-1 .6-1.6 0-.7-.3-1.4-.9-1.9-.6-.5-1.6-.8-3-.8h-4.3v.3c.5 0 .8 0 .9.1.2.1.3.2.3.3.1.1.1.5.1 1v6.4c0 .5-0 .9-.1 1-.1.1-.2.2-.3.3-.2.1-.5.1-.9.1v.2h5v-.3c-.4 0-.8-0-.9-.1-.2-.1-.3-.2-.3-.3-.1-.1-.1-.5-.1-1V58.7zm0-4.8h.3c.6 0 1.1.2 1.4.5s.5.9.5 1.6-.2 1.3-.5 1.6c-.3.3-.8.5-1.4.5-.1 0-.2 0-.4-0v-4.2zm17.3 4.8h.6l3.2 4.5h3.1v-.3c-.3-0-.5-.1-.7-.3-.1-.1-.3-.4-.7-.8l-2.3-3.3c.6-.2 1.1-.4 1.4-.7.5-.5.8-1.1.8-1.8 0-.6-.2-1.1-.5-1.6-.3-.5-.8-.8-1.3-.9-.5-.2-1.4-.3-2.6-.3H53.7v.3c.4 0 .8 0 .9.1s.3.2.3.3c.1.1.1.5.1 1v6.4c0 .5-0 .8-.1 1-.1.1-.2.2-.3.3-.2.1-.5.1-.9.1v.3h5v-.3c-.4 0-.8-0-.9-.1s-.3-.2-.3-.3c-.1-.1-.1-.5-.1-1v-2.8zm0-4.8h.8c.8 0 1.3.2 1.7.5s.5.9.5 1.7c0 .5-.1.9-.3 1.2-.2.3-.5.5-.8.7s-.8.2-1.5.2h-.4v-4.3zM10.3 42.7c.8 0 1.4-0 1.7-.1.5-.1.9-.3 1.2-.7s.4-.7.4-1.2c0-.5-.2-1-.7-1.4s-1.2-.6-2.2-.6H7.6v.2c.3 0 .6 0 .7.1.1.1.2.1.3.2s.1.4.1.7v4.7c0 .4-0 .6-.1.7s-.1.2-.3.2-.4.1-.7.1v.2h3.7v-.2c-.3 0-.6-0-.7-.1-.1-.1-.2-.1-.3-.2s-.1-.4-.1-.7V42.7zm-0-3.5h.2c.5 0 .8.1 1.1.4.2.2.4.6.4 1.2s-.1.9-.4 1.2-.6.4-1 .4c-.1 0-.2 0-.3-0v-3.1zm10.2 3.5h.5l2.3 3.3h2.3v-.2c-.2-0-.4-.1-.5-.2-.1-.1-.2-.3-.5-.6l-1.7-2.4c.5-.1.8-.3 1-.5.4-.3.6-.8.6-1.3 0-.4-.1-.8-.4-1.1-.3-.3-.6-.5-1-.7s-1-.2-1.9-.2h-3.3v.2c.3 0 .6 0 .7.1.1.1.2.1.3.2s.1.3.1.7v4.7c0 .4 0 .6-.1.7s-.1.2-.3.2-.3.1-.7.1v.2h3.7v-.2c-.3 0-.5-0-.7-.1-.1-.1-.2-.1-.3-.2s-.1-.3-.1-.7v-2zm0-3.5h.6c.6 0 1 .1 1.2.4s.4.7.4 1.2c0 .4-.1.7-.2.9s-.3.4-.6.5-.6.1-1.1.1h-.3v-3.1zm-4.7 2.4c-.2 0-.4.1-.5.2-.1.1-.2.3-.2.5s.1.3.2.5.3.2.5.2.4-.1.5-.2c.1-.1.2-.3.2-.5s-.1-.3-.2-.5-.3-.2-.5-.2zm-9.1-3.8 16.7-.1.1-.1L7 37.4l-.6-0-1.2 7.5-1.9-3.8-1.4.7.2.3.9-.4 2.3 4.7 1.4-8.7zm78.3-5.7 8.6-.1.1-.1-8.3-.1-.6-0-.7 13.4-3-5.6-1.3.6.2.2.9-.3 3.5 6.3.9-14.3zm4.2 3.4c.7 0 1.2-0 1.4-.1.4-.1.7-.2 1-.5s.4-.5.4-.8c0-.4-.2-.7-.6-1s-1-.4-1.8-.4h-2.6v.1c.3 0 .5 0 .6.1s.2.1.2.2.1.2.1.5v3.3c0 .3-0 .5-.1.5s-.1.1-.2.2-.3.1-.6.1v.1h3v-.1c-.3 0-.5-0-.6-.1s-.2-.1-.2-.2-.1-.2-.1-.5v-1.4zm-0-2.5h.2c.4 0 .7.1.9.3.2.2.3.5.3.8s-.1.7-.3.8c-.2.2-.5.3-.8.3-0 0-.1 0-.2-0v-2.2zm-.5 11h.4l1.9 2.3h1.9v-.1c-.2-0-.3-.1-.4-.1-.1-.1-.2-.2-.4-.4l-1.4-1.7c.4-.1.7-.2.9-.3.3-.3.5-.6.5-.9 0-.3-.1-.6-.3-.8-.2-.2-.5-.4-.8-.5-.3-.1-.9-.1-1.6-.1H86.4v.1c.3 0 .5 0 .6.1s.2.1.2.2.1.2.1.5v3.3c0 .3-0 .5-.1.5s-.1.1-.2.2-.3.1-.6.1v.1h3v-.1c-.3 0-.5-0-.6-.1s-.2-.1-.2-.2-.1-.2-.1-.5v-1.4zm0-2.5h.5c.5 0 .8.1 1 .3s.3.5.3.9c0 .3-.1.5-.2.6s-.3.3-.5.3-.5.1-.9.1h-.3v-2.2zm-1.9-2.1v.3h5.5v-.3h-5.5zM57.1 16.2h.6c.6 0 1 .1 1.2.3.3.2.4.6.4 1.1 0 .3-.1.6-.2.8s-.3.3-.6.4c-.2.1-.6.1-1.1.1h-.3V16.2zm-2.9-2.9v.4h7.7v-.4h-7.7zm2.9 6h.5l2.3 2.9h2.3v-.2c-.2 0-.3-.1-.5-.2-.1-.1-.3-.2-.5-.5l-1.7-2.1c.4-.1.8-.2 1-.4.4-.3.6-.7.6-1.1 0-.4-.1-.7-.4-1s-.6-.5-1-.6-1-.2-1.9-.2h-3.3v.2c.3 0 .5 0 .7.1s.2.1.3.2.1.3.1.6v4.1c0 .3-0 .5-.1.6-.1.1-.1.2-.3.2s-.3.1-.7.1v.2h3.7v-.2c-.3 0-.5-0-.7-.1s-.2-.1-.3-.2-.1-.3-.1-.6v-1.8zM54.4 5.4v.2c.3 0 .5 0 .6.1.1.1.2.1.2.2s.1.3.1.7V9.6c0 .5.1.9.3 1.2.2.3.5.6 1 .8.3.1.8.2 1.4.2.7 0 1.3-.1 1.7-.4s.7-.6.8-.9c.1-.3.2-.9.2-1.6V6.5c0-.3 0-.4.1-.5.1-.1.2-.2.3-.3.1-.1.3-.1.5-.1h.1V5.4h-2.5v.2c.3 0 .5 0 .7.1.1.1.2.1.3.3s.1.3.1.6V9.1c0 .7-.1 1.1-.2 1.4s-.3.5-.6.6-.6.2-1 .2c-.3 0-.6-0-.8-.2s-.4-.3-.5-.5c-.1-.2-.1-.5-.1-1.1V6.5c0-.4 0-.6.1-.7 0-.1.1-.2.2-.2.1-.1.3-.1.6-.1h.2V5.4h-3.7zm18.1 15.8v.4h6.5v-.4h-6.5zm2.9-4.7c.8 0 1.4-0 1.7-.1.5-.1.9-.3 1.2-.6s.4-.6.4-1c0-.5-.2-.9-.7-1.2s-1.2-.5-2.2-.5h-3.1v.2c.3 0 .5 0 .7.1.1 0 .2.1.3.2.1.1.1.3.1.6v4c0 .3-0 .6-.1.6s-.1.1-.3.2c-.1 0-.3.1-.7.1v.2h3.6v-.2c-.3 0-.5-0-.7-.1s-.2-.1-.3-.2c-.1-.1-.1-.3-.1-.6v-1.7zm0-3h.2c.4 0 .8.1 1 .3s.3.5.3 1c0 .4-.1.8-.3 1s-.6.3-1 .3c-.1 0-.1 0-.3 0v-2.7zM72.1 23.4v.2c.3-0 .5 0 .6.1s.2.1.2.2c.1.1.1.3.1.7v3c0 .5.1.9.3 1.2s.5.6 1 .7c.3.1.8.2 1.4.2.7 0 1.3-.1 1.7-.4s.7-.6.8-.9.2-.8.2-1.6v-2.3c0-.3 0-.4.1-.5.1-.1.2-.2.3-.3s.3-.1.5-.1h.2v-.2h-2.4v.2c.3 0 .5 0 .7.1.1.1.2.1.3.3.1.1.1.3.1.6v2.5c0 .6-.1 1.1-.2 1.4s-.3.5-.6.6c-.3.1-.6.2-1 .2-.3 0-.6-.1-.8-.2s-.4-.3-.5-.4c-.1-.2-.1-.5-.1-1.1v-3c0-.4 0-.6.1-.7 0-.1.1-.2.2-.2s.3-.1.6-.1h.2v-.2h-3.6zM39.7 8.5c.8 0 1.4-0 1.7-.1.5-.1.9-.3 1.2-.6s.4-.7.4-1.1c0-.5-.2-.9-.7-1.3s-1.2-.5-2.2-.5h-3.1v.2c.3 0 .5 0 .7.1.1.1.2.1.3.2s.1.3.1.7v4.3c0 .4 0 .6-.1.7-0 .1-.1.2-.2.2-.1.1-.3.1-.7.1v.2h3.6v-.2c-.3 0-.5-0-.7-.1s-.2-.1-.3-.2c-0-.1-.1-.3-.1-.7V8.5zm0-3.3h.2c.5 0 .8.1 1 .4.2.2.3.6.3 1.1s-.1.9-.3 1.1c-.2.2-.6.4-1 .4-.1 0-.1 0-.3 0V5.3zm-2.9 8.3V14h6.5v-.5h-6.5zm5.1 8.9h-.2c-.2 0-.3-0-.5-.1-.1-.1-.2-.1-.2-.2-0-.1-.1-.3-.1-.6V17.1c0-.3 0-.5.1-.6.1-.1.1-.2.2-.2.1-.1.3-.1.5-.1h.2v-.2h-3.7v.2h.2c.2 0 .3 0 .5.1.1.1.2.2.2.2s.1.3.1.6v4.4c0 .3-0 .5-.1.6-.1.1-.1.2-.2.2-.1.1-.3.1-.5.1h-.2v.2h3.7v-.2zm30.9 54v.4h6.9v-.4h-6.9zm.2-7.2v.1c.3-0 .5 0 .6.1s.2.1.2.2.1.3.1.6v2.7c0 .4.1.8.3 1.1.2.3.4.5.9.7.3.1.7.2 1.3.2.7 0 1.2-.1 1.6-.4.4-.2.6-.5.7-.8s.2-.7.2-1.4v-2.1c0-.2 0-.4.1-.5.1-.1.1-.2.3-.3s.3-.1.4-.1h.1v-.1h-2.2v.1c.2 0 .4 0 .6.1.1 0 .2.1.2.2.1.1.1.3.1.5v2.2c0 .6-.1 1-.2 1.2s-.3.4-.5.6-.5.2-.9.2c-.3 0-.6-0-.7-.2s-.3-.2-.4-.4c-.1-.2-.1-.5-.1-1v-2.7c0-.3 0-.5.1-.6s.1-.1.2-.2c.1-.1.3-.1.5-.1h.2v-.1h-3.3zm4.9 14.5h-.2c-.2 0-.3-0-.4-.1-.1-.1-.2-.1-.2-.2s-.1-.2-.1-.5v-3.6c0-.3 0-.5.1-.5 0-.1.1-.2.2-.2.1-.1.3-.1.4-.1h.2v-.1H74.5v.1h.2c.2 0 .3 0 .4.1.1.1.2.1.2.2s.1.2.1.5V83c0 .3-0 .5-.1.5-0 .1-.1.2-.2.2-.1.1-.3.1-.4.1h-.2v.1h3.3v-.1zm9.2-21.3h.2c.4 0 .7.1.9.3s.3.5.3.9-.1.7-.3.9-.5.3-.9.3c-0 0-.1 0-.2-0v-2.4zm0 2.7c.7 0 1.2-0 1.5-.1.4-.1.8-.3 1-.5s.4-.6.4-.9c0-.4-.2-.8-.6-1.1s-1-.4-1.9-.4h-2.7v.1c.3 0 .5 0 .6.1s.2.1.2.2.1.3.1.6v3.6c0 .3-0 .5-.1.6s-.1.1-.2.2-.3.1-.6.1v.1h3.1v-.1c-.3 0-.5-0-.6-.1-.1-0-.2-.1-.2-.2s-.1-.3-.1-.6v-1.5zm5.6-10.8.2-.8h-.1c-.1.1-.1.2-.1.2s-.1.1-.1.1-.2 0-.3 0h-.7c.5-.5.8-.8 1-1.1.1-.2.2-.4.2-.6 0-.1-0-.2-.1-.3s-.2-.2-.3-.3-.3-.1-.4-.1c-.2 0-.4.1-.6.2s-.3.3-.4.6l.1 0c.1-.2.3-.3.5-.3.1 0 .3 0 .4.1s.2.2.2.4c0 .2-.1.4-.2.6s-.5.6-1 1.2v.1h1.8zm-8.4-1.3v.1c.3-0 .4 0 .5.1.1 0 .2.1.2.2s.1.3.1.6v2.7c0 .5.1.8.3 1.1s.4.5.8.7c.3.1.7.2 1.2.2.6 0 1.1-.1 1.5-.4s.6-.5.7-.8.1-.7.1-1.4v-2.1c0-.2 0-.4.1-.5.1-.1.1-.2.3-.3s.3-.1.4-.1h.1v-.1h-2.1v.1c.3 0 .4 0 .6.1.1 0 .2.1.2.2.1.1.1.3.1.5v2.2c0 .6-.1 1-.2 1.2s-.3.4-.5.6c-.2.1-.5.2-.9.2-.3 0-.5-.1-.7-.2-.2-.1-.3-.2-.4-.4s-.1-.5-.1-1v-2.7c0-.3 0-.5.1-.6s.1-.1.2-.2c.1-.1.3-.1.5-.1h.2v-.1h-3.2zm-2.5 6.8v.4h10.4v-.4H81.7zM54.1 83.8v.4h8.3v-.4h-8.3zm5-4c.7 0 1.2-0 1.5-.1.4-.1.8-.3 1.1-.6.3-.3.4-.6.4-1 0-.5-.2-.8-.6-1.1-.4-.3-1.1-.4-2-.4h-2.8v.2c.3 0 .5 0 .6.1s.2.1.2.2.1.3.1.6v3.8c0 .3 0 .5-.1.6-0 .1-.1.1-.2.2-.1.1-.3.1-.6.1v.2H60v-.1c-.3 0-.5-0-.6-.1s-.2-.1-.2-.2-.1-.3-.1-.6v-1.6zm-0-2.8h.2c.4 0 .7.1.9.3s.3.5.3.9-.1.7-.3 1-.5.3-.9.3c-.1 0-.1-0-.2-0v-2.5zm1.8 10.7.2-.8h-.1c-0 .1-.1.2-.1.2-0 0-.1.1-.1.1s-.2 0-.3 0h-.7c.5-.5.9-.8 1-1.1.1-.2.2-.4.2-.6 0-.1-0-.2-.1-.3-.1-.1-.2-.2-.3-.3s-.3-.1-.4-.1c-.2 0-.4.1-.6.2-.2.1-.3.3-.4.6l.1 0c.1-.2.3-.3.6-.3.1 0 .3.1.4.2s.2.2.2.4c0 .2-.1.4-.2.6-.1.2-.5.6-1.1 1.3v.1h1.9zm-2.2 4.2h-.2c-.2 0-.3-0-.4-.1-.1-.1-.2-.1-.2-.2s-.1-.3-.1-.6v-3.8c0-.3 0-.5.1-.5 0-.1.1-.2.2-.2.1-.1.3-.1.4-.1h.2v-.1h-3.3v.2h.2c.2 0 .3 0 .4.1.1.1.2.1.2.2s.1.3.1.6v3.8c0 .3-0 .5-.1.5-0 .1-.1.2-.2.2-.1.1-.3.1-.5.1h-.2v.2h3.3v-.2zM39.7 87.3h.5c.5 0 .9.1 1.1.3s.3.5.3 1c0 .3-.1.5-.2.7-.1.2-.3.3-.5.4s-.5.1-1 .1h-.3v-2.5zm0 2.8h.4l2.1 2.6h2v-.2c-.2-0-.3-.1-.5-.1-.1-.1-.2-.2-.4-.5l-1.5-1.9c.4-.1.7-.2.9-.4.3-.3.5-.6.5-1 0-.3-.1-.6-.3-.9s-.5-.4-.9-.5c-.4-.1-.9-.1-1.7-.1h-3v.2c.3 0 .5 0 .6.1.1 0 .2.1.2.2 0 .1.1.3.1.6v3.7c0 .3-0 .5-.1.6-.1.1-.1.1-.2.2s-.3.1-.6.1v.2h3.3v-.2c-.3 0-.5-0-.6-.1s-.2-.1-.2-.2c-0-.1-.1-.3-.1-.6V90.1zm-2.4-12.6v.2c.3 0 .5 0 .6.1.1 0 .2.1.2.2 0 .1.1.3.1.6v2.8c0 .5.1.9.3 1.1s.5.5.9.7c.3.1.7.2 1.3.2.7 0 1.2-.1 1.6-.4.4-.2.6-.5.7-.8s.2-.8.2-1.5v-2.2c0-.2 0-.4.1-.5 0-.1.1-.2.3-.3s.3-.1.5-.1h.1v-.2h-2.2v.2c.3 0 .5 0 .6.1.1 0 .2.1.2.2.1.1.1.3.1.6v2.3c0 .6-.1 1-.2 1.3-.1.2-.3.4-.6.6s-.5.2-.9.2c-.3 0-.6-0-.8-.2s-.3-.3-.4-.4-.1-.5-.1-1v-2.8c0-.3 0-.5.1-.6s.1-.1.2-.2.3-.1.5-.1h.2v-.2h-3.3zm8.9 1.4.2-.8h-.1c-.1.1-.1.2-.1.2s-.1.1-.1.1-.2 0-.3 0h-.7c.5-.5.9-.8 1-1.1.1-.2.2-.4.2-.6 0-.1-0-.2-.1-.3-.1-.1-.2-.2-.3-.3-.1-.1-.3-.1-.4-.1-.2 0-.4.1-.6.2-.2.1-.3.3-.4.6l.1 0c.1-.2.3-.3.6-.3.1 0 .3.1.4.2.1.1.2.2.2.4 0 .2-.1.4-.2.6-.1.2-.5.6-1.1 1.2v.1h1.9zm-11 5.7v.4h11.2v-.4H35.1zm-8.2-34.1c.4 11.9 10 21.4 21.9 21.8v26.2C22.5 98.1 1.2 76.8.8 50.5h26.2zm21.9-0v21.1c-11.5-.4-20.7-9.6-21.1-21.1h21.1zm22.7 0c-.4 11.5-9.7 20.7-21.1 21.1V50.5h21.1zm26.9-0c-.4 26.4-21.7 47.7-48.1 48.1v-26.2c11.9-.4 21.5-10 21.9-21.8h26.2zm-26.2-1.5c-.4-11.9-10-21.6-21.9-22V.8c26.4.4 47.7 21.8 48.1 48.2H72.3zm-21.9 0v-21.2c11.5.4 20.8 9.7 21.1 21.2H50.4zm-22.7 0c.4-11.5 9.6-20.8 21.1-21.2v21.2H27.7zm-27 0C1.1 22.5 22.5 1.2 48.9.8v26.2c-11.9.4-21.6 10-21.9 22H.8zM49.6 0C22.2 0 0 22.2 0 49.6c0 27.4 22.2 49.6 49.6 49.6 27.4 0 49.7-22.2 49.7-49.6C99.3 22.2 77.1 0 49.6 0zm24.8 7.5c-.2-.1-.4-.3-.7-.4l-13.1 22.7c.2.1.4.2.7.4l13.1-22.7zM69.1 38c.1.2.3.4.4.7l22.7-13.1c-.1-.2-.3-.4-.4-.7L69.1 38zm.3 22.7c-.1.2-.3.4-.4.7l22.7 13.1c.1-.2.3-.4.4-.7l-22.7-13.1zm-8.2 8.4c-.2.1-.4.3-.7.4l13.1 22.7c.2-.1.4-.3.7-.4L61.3 69.1zm-22.6.4c-.2-.1-.4-.3-.7-.4L24.9 91.8c.2.1.4.3.7.4l13.1-22.7zm-8.4-8.1c-.1-.2-.3-.4-.4-.7l-22.7 13.1c.1.2.3.4.4.7l22.7-13.1zm-.5-22.7c.1-.2.2-.4.4-.7L7.5 24.9c-.1.2-.3.4-.4.7l22.7 13.1zm8.2-8.5c.2-.1.4-.2.7-.4L25.5 7.1c-.2.1-.4.3-.7.4l13.1 22.7z" fill="orange"/>
</svg>